<mxfile host="app.diagrams.net" modified="2024-04-08T17:27:51.137Z" agent="Mozilla/5.0 (Macintosh; Intel Mac OS X 10_15_7) AppleWebKit/537.36 (KHTML, like Gecko) Chrome/123.0.0.0 Safari/537.36" etag="VBtS_A9DgWC_PrSuY4tq" version="24.2.2" type="device" pages="2">
  <diagram name="Workflow" id="M_OC8dfhxr_gCFad96_3">
    <mxGraphModel dx="1314" dy="771" grid="1" gridSize="10" guides="1" tooltips="1" connect="1" arrows="1" fold="1" page="1" pageScale="1" pageWidth="850" pageHeight="1100" math="0" shadow="0">
      <root>
        <mxCell id="0" />
        <mxCell id="1" parent="0" />
        <mxCell id="zoGnA9uF0lJFVI6aviCF-14" style="edgeStyle=orthogonalEdgeStyle;rounded=0;orthogonalLoop=1;jettySize=auto;html=1;exitX=1;exitY=0.5;exitDx=0;exitDy=0;entryX=0;entryY=0.5;entryDx=0;entryDy=0;" parent="1" source="zoGnA9uF0lJFVI6aviCF-1" target="zoGnA9uF0lJFVI6aviCF-2" edge="1">
          <mxGeometry relative="1" as="geometry" />
        </mxCell>
        <mxCell id="zoGnA9uF0lJFVI6aviCF-1" value="Start" style="ellipse;whiteSpace=wrap;html=1;aspect=fixed;" parent="1" vertex="1">
          <mxGeometry y="10" width="40" height="40" as="geometry" />
        </mxCell>
        <mxCell id="zoGnA9uF0lJFVI6aviCF-15" style="edgeStyle=orthogonalEdgeStyle;rounded=0;orthogonalLoop=1;jettySize=auto;html=1;exitX=1;exitY=0.5;exitDx=0;exitDy=0;entryX=0;entryY=0.5;entryDx=0;entryDy=0;" parent="1" source="zoGnA9uF0lJFVI6aviCF-2" target="zoGnA9uF0lJFVI6aviCF-3" edge="1">
          <mxGeometry relative="1" as="geometry" />
        </mxCell>
        <mxCell id="zoGnA9uF0lJFVI6aviCF-2" value="Provide Raw Input Data" style="shape=process;whiteSpace=wrap;html=1;backgroundOutline=1;" parent="1" vertex="1">
          <mxGeometry x="80" width="120" height="60" as="geometry" />
        </mxCell>
        <mxCell id="zoGnA9uF0lJFVI6aviCF-16" style="edgeStyle=orthogonalEdgeStyle;rounded=0;orthogonalLoop=1;jettySize=auto;html=1;exitX=1;exitY=0.5;exitDx=0;exitDy=0;entryX=0;entryY=0.5;entryDx=0;entryDy=0;" parent="1" source="zoGnA9uF0lJFVI6aviCF-3" target="zoGnA9uF0lJFVI6aviCF-4" edge="1">
          <mxGeometry relative="1" as="geometry" />
        </mxCell>
        <mxCell id="zoGnA9uF0lJFVI6aviCF-3" value="Prepare Input Data" style="shape=process;whiteSpace=wrap;html=1;backgroundOutline=1;" parent="1" vertex="1">
          <mxGeometry x="240" width="120" height="60" as="geometry" />
        </mxCell>
        <mxCell id="zoGnA9uF0lJFVI6aviCF-17" style="edgeStyle=orthogonalEdgeStyle;rounded=0;orthogonalLoop=1;jettySize=auto;html=1;exitX=1;exitY=0.5;exitDx=0;exitDy=0;entryX=0;entryY=0.5;entryDx=0;entryDy=0;" parent="1" source="zoGnA9uF0lJFVI6aviCF-4" target="zoGnA9uF0lJFVI6aviCF-5" edge="1">
          <mxGeometry relative="1" as="geometry" />
        </mxCell>
        <mxCell id="zoGnA9uF0lJFVI6aviCF-4" value="Analyze Input Data" style="shape=process;whiteSpace=wrap;html=1;backgroundOutline=1;" parent="1" vertex="1">
          <mxGeometry x="400" width="120" height="60" as="geometry" />
        </mxCell>
        <mxCell id="zoGnA9uF0lJFVI6aviCF-18" style="edgeStyle=orthogonalEdgeStyle;rounded=0;orthogonalLoop=1;jettySize=auto;html=1;exitX=1;exitY=0.5;exitDx=0;exitDy=0;entryX=0;entryY=0.5;entryDx=0;entryDy=0;" parent="1" source="zoGnA9uF0lJFVI6aviCF-5" target="zoGnA9uF0lJFVI6aviCF-6" edge="1">
          <mxGeometry relative="1" as="geometry" />
        </mxCell>
        <mxCell id="zoGnA9uF0lJFVI6aviCF-5" value="Prepare Analysis Results" style="shape=process;whiteSpace=wrap;html=1;backgroundOutline=1;" parent="1" vertex="1">
          <mxGeometry x="560" width="120" height="60" as="geometry" />
        </mxCell>
        <mxCell id="zoGnA9uF0lJFVI6aviCF-19" style="edgeStyle=orthogonalEdgeStyle;rounded=0;orthogonalLoop=1;jettySize=auto;html=1;exitX=1;exitY=0.5;exitDx=0;exitDy=0;entryX=0;entryY=0.5;entryDx=0;entryDy=0;" parent="1" source="zoGnA9uF0lJFVI6aviCF-6" target="zoGnA9uF0lJFVI6aviCF-7" edge="1">
          <mxGeometry relative="1" as="geometry" />
        </mxCell>
        <mxCell id="zoGnA9uF0lJFVI6aviCF-6" value="Publish Output Data" style="shape=process;whiteSpace=wrap;html=1;backgroundOutline=1;" parent="1" vertex="1">
          <mxGeometry x="720" width="120" height="60" as="geometry" />
        </mxCell>
        <mxCell id="zoGnA9uF0lJFVI6aviCF-7" value="End" style="ellipse;whiteSpace=wrap;html=1;aspect=fixed;" parent="1" vertex="1">
          <mxGeometry x="880" y="10" width="40" height="40" as="geometry" />
        </mxCell>
      </root>
    </mxGraphModel>
  </diagram>
  <diagram id="-rLXrbAGPjcEkIOgdSMC" name="Architecture">
    <mxGraphModel dx="2310" dy="1957" grid="1" gridSize="10" guides="1" tooltips="1" connect="1" arrows="1" fold="1" page="1" pageScale="1" pageWidth="850" pageHeight="1100" math="0" shadow="0">
      <root>
        <mxCell id="0" />
        <mxCell id="1" parent="0" />
        <mxCell id="bRxHQmMlnLKIko_M4iw--97" value="AWS Step Functions Workflow" style="swimlane;childLayout=stackLayout;resizeParent=1;resizeParentMax=0;horizontal=0;startSize=20;horizontalStack=0;html=1;strokeColor=#439c88;" parent="1" vertex="1">
          <mxGeometry x="-40" y="-80" width="560" height="960" as="geometry" />
        </mxCell>
        <mxCell id="bRxHQmMlnLKIko_M4iw--98" value="Data pre-preparation" style="swimlane;startSize=20;horizontal=0;html=1;strokeColor=#439c88;" parent="bRxHQmMlnLKIko_M4iw--97" vertex="1">
          <mxGeometry x="20" width="540" height="360" as="geometry" />
        </mxCell>
        <mxCell id="bRxHQmMlnLKIko_M4iw--99" value="Data analysis" style="swimlane;startSize=20;horizontal=0;html=1;strokeColor=#439c88;" parent="bRxHQmMlnLKIko_M4iw--97" vertex="1">
          <mxGeometry x="20" y="360" width="540" height="280" as="geometry" />
        </mxCell>
        <mxCell id="bRxHQmMlnLKIko_M4iw--100" value="Data post-preparation" style="swimlane;startSize=20;horizontal=0;html=1;strokeColor=#439c88;" parent="bRxHQmMlnLKIko_M4iw--97" vertex="1">
          <mxGeometry x="20" y="640" width="540" height="320" as="geometry" />
        </mxCell>
        <mxCell id="bRxHQmMlnLKIko_M4iw--9" value="S3 folder&lt;div&gt;input/&lt;/div&gt;" style="sketch=0;points=[[0,0,0],[0.25,0,0],[0.5,0,0],[0.75,0,0],[1,0,0],[0,1,0],[0.25,1,0],[0.5,1,0],[0.75,1,0],[1,1,0],[0,0.25,0],[0,0.5,0],[0,0.75,0],[1,0.25,0],[1,0.5,0],[1,0.75,0]];outlineConnect=0;fontColor=#232F3E;fillColor=#7AA116;strokeColor=#ffffff;dashed=0;verticalLabelPosition=bottom;verticalAlign=top;align=center;html=1;fontSize=12;fontStyle=0;aspect=fixed;shape=mxgraph.aws4.resourceIcon;resIcon=mxgraph.aws4.s3;" parent="1" vertex="1">
          <mxGeometry x="600" y="40" width="78" height="78" as="geometry" />
        </mxCell>
        <mxCell id="bRxHQmMlnLKIko_M4iw--12" value="AWS Step Functions workflow" style="sketch=0;outlineConnect=0;gradientColor=none;html=1;whiteSpace=wrap;fontSize=12;fontStyle=0;shape=mxgraph.aws4.group;grIcon=mxgraph.aws4.group_aws_step_functions_workflow;strokeColor=#00856e;fillColor=none;verticalAlign=top;align=left;spacingLeft=30;fontColor=#545B64;dashed=0;" parent="1" vertex="1">
          <mxGeometry y="-80" width="520" height="960" as="geometry" />
        </mxCell>
        <mxCell id="bRxHQmMlnLKIko_M4iw--10" value="Empty S3 folder&lt;div&gt;Lambda Premissions&lt;/div&gt;" style="sketch=0;outlineConnect=0;fontColor=#232F3E;gradientColor=none;fillColor=#DD344C;strokeColor=none;dashed=0;verticalLabelPosition=bottom;verticalAlign=top;align=center;html=1;fontSize=12;fontStyle=0;aspect=fixed;pointerEvents=1;shape=mxgraph.aws4.permissions;" parent="1" vertex="1">
          <mxGeometry x="-360" width="62" height="78" as="geometry" />
        </mxCell>
        <mxCell id="bRxHQmMlnLKIko_M4iw--70" value="" style="edgeStyle=orthogonalEdgeStyle;rounded=0;orthogonalLoop=1;jettySize=auto;html=1;fillColor=#a20025;strokeColor=#6F0000;dashed=1;dashPattern=1 4;" parent="1" source="bRxHQmMlnLKIko_M4iw--11" target="bRxHQmMlnLKIko_M4iw--10" edge="1">
          <mxGeometry relative="1" as="geometry" />
        </mxCell>
        <mxCell id="bRxHQmMlnLKIko_M4iw--11" value="Empty S3 folder&lt;div&gt;Lambda Role&lt;/div&gt;" style="sketch=0;outlineConnect=0;fontColor=#232F3E;gradientColor=none;fillColor=#DD344C;strokeColor=none;dashed=0;verticalLabelPosition=bottom;verticalAlign=top;align=center;html=1;fontSize=12;fontStyle=0;aspect=fixed;pointerEvents=1;shape=mxgraph.aws4.role;" parent="1" vertex="1">
          <mxGeometry x="-240" y="17" width="78" height="44" as="geometry" />
        </mxCell>
        <mxCell id="bRxHQmMlnLKIko_M4iw--66" style="edgeStyle=orthogonalEdgeStyle;rounded=0;orthogonalLoop=1;jettySize=auto;html=1;exitX=0.5;exitY=1;exitDx=0;exitDy=0;exitPerimeter=0;entryX=0.5;entryY=0;entryDx=0;entryDy=0;entryPerimeter=0;" parent="1" source="bRxHQmMlnLKIko_M4iw--13" edge="1" target="bRxHQmMlnLKIko_M4iw--16">
          <mxGeometry relative="1" as="geometry">
            <mxPoint x="196" y="160" as="targetPoint" />
          </mxGeometry>
        </mxCell>
        <mxCell id="bRxHQmMlnLKIko_M4iw--13" value="Empty S3 folder&lt;div&gt;analyzed/&lt;/div&gt;" style="sketch=0;points=[[0,0,0],[0.25,0,0],[0.5,0,0],[0.75,0,0],[1,0,0],[0,1,0],[0.25,1,0],[0.5,1,0],[0.75,1,0],[1,1,0],[0,0.25,0],[0,0.5,0],[0,0.75,0],[1,0.25,0],[1,0.5,0],[1,0.75,0]];outlineConnect=0;fontColor=#232F3E;fillColor=#ED7100;strokeColor=#ffffff;dashed=0;verticalLabelPosition=bottom;verticalAlign=top;align=center;html=1;fontSize=12;fontStyle=0;aspect=fixed;shape=mxgraph.aws4.resourceIcon;resIcon=mxgraph.aws4.lambda;" parent="1" vertex="1">
          <mxGeometry x="280" width="78" height="78" as="geometry" />
        </mxCell>
        <mxCell id="bRxHQmMlnLKIko_M4iw--14" value="Empty S3 folder&lt;div&gt;results/&lt;/div&gt;" style="sketch=0;points=[[0,0,0],[0.25,0,0],[0.5,0,0],[0.75,0,0],[1,0,0],[0,1,0],[0.25,1,0],[0.5,1,0],[0.75,1,0],[1,1,0],[0,0.25,0],[0,0.5,0],[0,0.75,0],[1,0.25,0],[1,0.5,0],[1,0.75,0]];outlineConnect=0;fontColor=#232F3E;fillColor=#ED7100;strokeColor=#ffffff;dashed=0;verticalLabelPosition=bottom;verticalAlign=top;align=center;html=1;fontSize=12;fontStyle=0;aspect=fixed;shape=mxgraph.aws4.resourceIcon;resIcon=mxgraph.aws4.lambda;" parent="1" vertex="1">
          <mxGeometry x="400" width="78" height="78" as="geometry" />
        </mxCell>
        <mxCell id="bRxHQmMlnLKIko_M4iw--71" value="" style="edgeStyle=orthogonalEdgeStyle;rounded=0;orthogonalLoop=1;jettySize=auto;html=1;entryX=0.5;entryY=0;entryDx=0;entryDy=0;entryPerimeter=0;" parent="1" source="bRxHQmMlnLKIko_M4iw--16" target="bRxHQmMlnLKIko_M4iw--17" edge="1">
          <mxGeometry relative="1" as="geometry">
            <mxPoint x="249.95" y="280" as="targetPoint" />
          </mxGeometry>
        </mxCell>
        <mxCell id="bRxHQmMlnLKIko_M4iw--79" style="edgeStyle=orthogonalEdgeStyle;rounded=0;orthogonalLoop=1;jettySize=auto;html=1;exitX=0;exitY=0.5;exitDx=0;exitDy=0;exitPerimeter=0;dashed=1;dashPattern=1 4;fillColor=#a20025;strokeColor=#b37eff;" parent="1" source="bRxHQmMlnLKIko_M4iw--16" target="bRxHQmMlnLKIko_M4iw--78" edge="1">
          <mxGeometry relative="1" as="geometry" />
        </mxCell>
        <mxCell id="bRxHQmMlnLKIko_M4iw--16" value="Prepare data" style="sketch=0;points=[[0,0,0],[0.25,0,0],[0.5,0,0],[0.75,0,0],[1,0,0],[0,1,0],[0.25,1,0],[0.5,1,0],[0.75,1,0],[1,1,0],[0,0.25,0],[0,0.5,0],[0,0.75,0],[1,0.25,0],[1,0.5,0],[1,0.75,0]];outlineConnect=0;fontColor=#232F3E;fillColor=#8C4FFF;strokeColor=#ffffff;dashed=0;verticalLabelPosition=middle;verticalAlign=top;align=right;html=1;fontSize=12;fontStyle=0;aspect=fixed;shape=mxgraph.aws4.resourceIcon;resIcon=mxgraph.aws4.glue;labelPosition=left;" parent="1" vertex="1">
          <mxGeometry x="221" y="160" width="78" height="78" as="geometry" />
        </mxCell>
        <mxCell id="bRxHQmMlnLKIko_M4iw--73" value="" style="edgeStyle=orthogonalEdgeStyle;rounded=0;orthogonalLoop=1;jettySize=auto;html=1;" parent="1" source="bRxHQmMlnLKIko_M4iw--17" target="bRxHQmMlnLKIko_M4iw--18" edge="1">
          <mxGeometry relative="1" as="geometry" />
        </mxCell>
        <mxCell id="bRxHQmMlnLKIko_M4iw--93" style="edgeStyle=orthogonalEdgeStyle;rounded=0;orthogonalLoop=1;jettySize=auto;html=1;exitX=0;exitY=0.5;exitDx=0;exitDy=0;exitPerimeter=0;dashed=1;dashPattern=1 4;strokeColor=#00856e;" parent="1" source="bRxHQmMlnLKIko_M4iw--17" target="bRxHQmMlnLKIko_M4iw--92" edge="1">
          <mxGeometry relative="1" as="geometry" />
        </mxCell>
        <mxCell id="bRxHQmMlnLKIko_M4iw--17" value="Sentiment analysis" style="sketch=0;points=[[0,0,0],[0.25,0,0],[0.5,0,0],[0.75,0,0],[1,0,0],[0,1,0],[0.25,1,0],[0.5,1,0],[0.75,1,0],[1,1,0],[0,0.25,0],[0,0.5,0],[0,0.75,0],[1,0.25,0],[1,0.5,0],[1,0.75,0]];outlineConnect=0;fontColor=#232F3E;fillColor=#01A88D;strokeColor=#ffffff;dashed=0;verticalLabelPosition=middle;verticalAlign=top;align=right;html=1;fontSize=12;fontStyle=0;aspect=fixed;shape=mxgraph.aws4.resourceIcon;resIcon=mxgraph.aws4.comprehend;labelPosition=left;" parent="1" vertex="1">
          <mxGeometry x="221" y="321" width="78" height="78" as="geometry" />
        </mxCell>
        <mxCell id="bRxHQmMlnLKIko_M4iw--74" value="" style="edgeStyle=orthogonalEdgeStyle;rounded=0;orthogonalLoop=1;jettySize=auto;html=1;" parent="1" source="bRxHQmMlnLKIko_M4iw--18" target="bRxHQmMlnLKIko_M4iw--19" edge="1">
          <mxGeometry relative="1" as="geometry" />
        </mxCell>
        <mxCell id="bRxHQmMlnLKIko_M4iw--88" style="edgeStyle=orthogonalEdgeStyle;rounded=0;orthogonalLoop=1;jettySize=auto;html=1;exitX=0;exitY=0.5;exitDx=0;exitDy=0;exitPerimeter=0;dashed=1;dashPattern=1 4;strokeColor=#cf640c;" parent="1" source="bRxHQmMlnLKIko_M4iw--18" target="bRxHQmMlnLKIko_M4iw--84" edge="1">
          <mxGeometry relative="1" as="geometry">
            <Array as="points">
              <mxPoint x="-160" y="479" />
              <mxPoint x="-160" y="479" />
            </Array>
          </mxGeometry>
        </mxCell>
        <mxCell id="bRxHQmMlnLKIko_M4iw--18" value="Unzip analyzed data&lt;div&gt;&lt;br&gt;&lt;/div&gt;" style="sketch=0;points=[[0,0,0],[0.25,0,0],[0.5,0,0],[0.75,0,0],[1,0,0],[0,1,0],[0.25,1,0],[0.5,1,0],[0.75,1,0],[1,1,0],[0,0.25,0],[0,0.5,0],[0,0.75,0],[1,0.25,0],[1,0.5,0],[1,0.75,0]];outlineConnect=0;fontColor=#232F3E;fillColor=#ED7100;strokeColor=#ffffff;dashed=0;verticalLabelPosition=middle;verticalAlign=top;align=right;html=1;fontSize=12;fontStyle=0;aspect=fixed;shape=mxgraph.aws4.resourceIcon;resIcon=mxgraph.aws4.lambda;labelPosition=left;" parent="1" vertex="1">
          <mxGeometry x="221" y="440" width="78" height="78" as="geometry" />
        </mxCell>
        <mxCell id="bRxHQmMlnLKIko_M4iw--44" style="edgeStyle=orthogonalEdgeStyle;rounded=0;orthogonalLoop=1;jettySize=auto;html=1;exitX=1;exitY=0.5;exitDx=0;exitDy=0;exitPerimeter=0;fillColor=#0050ef;strokeColor=#001DBC;dashed=1;" parent="1" source="bRxHQmMlnLKIko_M4iw--19" target="bRxHQmMlnLKIko_M4iw--24" edge="1">
          <mxGeometry relative="1" as="geometry">
            <Array as="points">
              <mxPoint x="560" y="639" />
              <mxPoint x="560" y="699" />
            </Array>
          </mxGeometry>
        </mxCell>
        <mxCell id="bRxHQmMlnLKIko_M4iw--62" value="PUT results CSV" style="edgeLabel;html=1;align=center;verticalAlign=middle;resizable=0;points=[];" parent="bRxHQmMlnLKIko_M4iw--44" vertex="1" connectable="0">
          <mxGeometry x="-0.7446" y="1" relative="1" as="geometry">
            <mxPoint x="35" as="offset" />
          </mxGeometry>
        </mxCell>
        <mxCell id="bRxHQmMlnLKIko_M4iw--81" style="edgeStyle=orthogonalEdgeStyle;rounded=0;orthogonalLoop=1;jettySize=auto;html=1;exitX=0;exitY=0.5;exitDx=0;exitDy=0;exitPerimeter=0;fillColor=#a20025;strokeColor=#b37eff;dashed=1;dashPattern=1 4;" parent="1" source="bRxHQmMlnLKIko_M4iw--19" target="bRxHQmMlnLKIko_M4iw--78" edge="1">
          <mxGeometry relative="1" as="geometry">
            <Array as="points">
              <mxPoint x="-80" y="639" />
              <mxPoint x="-80" y="199" />
            </Array>
          </mxGeometry>
        </mxCell>
        <mxCell id="kBexBs3pe_u1wvEAEUa_-4" style="edgeStyle=orthogonalEdgeStyle;rounded=0;orthogonalLoop=1;jettySize=auto;html=1;exitX=0.5;exitY=1;exitDx=0;exitDy=0;exitPerimeter=0;" parent="1" source="bRxHQmMlnLKIko_M4iw--19" target="kBexBs3pe_u1wvEAEUa_-3" edge="1">
          <mxGeometry relative="1" as="geometry" />
        </mxCell>
        <mxCell id="bRxHQmMlnLKIko_M4iw--19" value="Prepare results" style="sketch=0;points=[[0,0,0],[0.25,0,0],[0.5,0,0],[0.75,0,0],[1,0,0],[0,1,0],[0.25,1,0],[0.5,1,0],[0.75,1,0],[1,1,0],[0,0.25,0],[0,0.5,0],[0,0.75,0],[1,0.25,0],[1,0.5,0],[1,0.75,0]];outlineConnect=0;fontColor=#232F3E;fillColor=#8C4FFF;strokeColor=#ffffff;dashed=0;verticalLabelPosition=middle;verticalAlign=top;align=right;html=1;fontSize=12;fontStyle=0;aspect=fixed;shape=mxgraph.aws4.resourceIcon;resIcon=mxgraph.aws4.glue;labelPosition=left;" parent="1" vertex="1">
          <mxGeometry x="221" y="600" width="78" height="78" as="geometry" />
        </mxCell>
        <mxCell id="bRxHQmMlnLKIko_M4iw--69" style="edgeStyle=orthogonalEdgeStyle;rounded=0;orthogonalLoop=1;jettySize=auto;html=1;exitX=0;exitY=0.5;exitDx=0;exitDy=0;exitPerimeter=0;dashed=1;dashPattern=1 4;fillColor=#a20025;strokeColor=#cf640c;" parent="1" source="bRxHQmMlnLKIko_M4iw--21" target="bRxHQmMlnLKIko_M4iw--11" edge="1">
          <mxGeometry relative="1" as="geometry" />
        </mxCell>
        <mxCell id="bRxHQmMlnLKIko_M4iw--21" value="Empty S3 folder&lt;br&gt;prepared/" style="sketch=0;points=[[0,0,0],[0.25,0,0],[0.5,0,0],[0.75,0,0],[1,0,0],[0,1,0],[0.25,1,0],[0.5,1,0],[0.75,1,0],[1,1,0],[0,0.25,0],[0,0.5,0],[0,0.75,0],[1,0.25,0],[1,0.5,0],[1,0.75,0]];outlineConnect=0;fontColor=#232F3E;fillColor=#ED7100;strokeColor=#ffffff;dashed=0;verticalLabelPosition=bottom;verticalAlign=top;align=center;html=1;fontSize=12;fontStyle=0;aspect=fixed;shape=mxgraph.aws4.resourceIcon;resIcon=mxgraph.aws4.lambda;" parent="1" vertex="1">
          <mxGeometry x="157" width="78" height="78" as="geometry" />
        </mxCell>
        <mxCell id="bRxHQmMlnLKIko_M4iw--22" value="S3 folder&lt;div&gt;prepared/&lt;/div&gt;" style="sketch=0;points=[[0,0,0],[0.25,0,0],[0.5,0,0],[0.75,0,0],[1,0,0],[0,1,0],[0.25,1,0],[0.5,1,0],[0.75,1,0],[1,1,0],[0,0.25,0],[0,0.5,0],[0,0.75,0],[1,0.25,0],[1,0.5,0],[1,0.75,0]];outlineConnect=0;fontColor=#232F3E;fillColor=#7AA116;strokeColor=#ffffff;dashed=0;verticalLabelPosition=bottom;verticalAlign=top;align=center;html=1;fontSize=12;fontStyle=0;aspect=fixed;shape=mxgraph.aws4.resourceIcon;resIcon=mxgraph.aws4.s3;" parent="1" vertex="1">
          <mxGeometry x="600" y="238" width="78" height="78" as="geometry" />
        </mxCell>
        <mxCell id="bRxHQmMlnLKIko_M4iw--23" value="S3 folder&lt;div&gt;analyzed/&lt;/div&gt;" style="sketch=0;points=[[0,0,0],[0.25,0,0],[0.5,0,0],[0.75,0,0],[1,0,0],[0,1,0],[0.25,1,0],[0.5,1,0],[0.75,1,0],[1,1,0],[0,0.25,0],[0,0.5,0],[0,0.75,0],[1,0.25,0],[1,0.5,0],[1,0.75,0]];outlineConnect=0;fontColor=#232F3E;fillColor=#7AA116;strokeColor=#ffffff;dashed=0;verticalLabelPosition=bottom;verticalAlign=top;align=center;html=1;fontSize=12;fontStyle=0;aspect=fixed;shape=mxgraph.aws4.resourceIcon;resIcon=mxgraph.aws4.s3;" parent="1" vertex="1">
          <mxGeometry x="600" y="440" width="78" height="78" as="geometry" />
        </mxCell>
        <mxCell id="kBexBs3pe_u1wvEAEUa_-5" style="edgeStyle=orthogonalEdgeStyle;rounded=0;orthogonalLoop=1;jettySize=auto;html=1;exitX=0;exitY=0.75;exitDx=0;exitDy=0;exitPerimeter=0;dashed=1;fillColor=#60a917;strokeColor=#2D7600;" parent="1" source="bRxHQmMlnLKIko_M4iw--24" target="kBexBs3pe_u1wvEAEUa_-3" edge="1">
          <mxGeometry relative="1" as="geometry">
            <Array as="points">
              <mxPoint x="560" y="719" />
              <mxPoint x="560" y="780" />
            </Array>
          </mxGeometry>
        </mxCell>
        <mxCell id="kBexBs3pe_u1wvEAEUa_-6" value="Read results CSV" style="edgeLabel;html=1;align=center;verticalAlign=middle;resizable=0;points=[];" parent="kBexBs3pe_u1wvEAEUa_-5" vertex="1" connectable="0">
          <mxGeometry x="0.5837" y="-1" relative="1" as="geometry">
            <mxPoint x="9" as="offset" />
          </mxGeometry>
        </mxCell>
        <mxCell id="bRxHQmMlnLKIko_M4iw--24" value="S3 folder&lt;div&gt;results/&lt;/div&gt;" style="sketch=0;points=[[0,0,0],[0.25,0,0],[0.5,0,0],[0.75,0,0],[1,0,0],[0,1,0],[0.25,1,0],[0.5,1,0],[0.75,1,0],[1,1,0],[0,0.25,0],[0,0.5,0],[0,0.75,0],[1,0.25,0],[1,0.5,0],[1,0.75,0]];outlineConnect=0;fontColor=#232F3E;fillColor=#7AA116;strokeColor=#ffffff;dashed=0;verticalLabelPosition=bottom;verticalAlign=top;align=center;html=1;fontSize=12;fontStyle=0;aspect=fixed;shape=mxgraph.aws4.resourceIcon;resIcon=mxgraph.aws4.s3;" parent="1" vertex="1">
          <mxGeometry x="600" y="660" width="78" height="78" as="geometry" />
        </mxCell>
        <mxCell id="bRxHQmMlnLKIko_M4iw--25" style="edgeStyle=orthogonalEdgeStyle;rounded=0;orthogonalLoop=1;jettySize=auto;html=1;exitX=0.5;exitY=0;exitDx=0;exitDy=0;exitPerimeter=0;entryX=1;entryY=0.5;entryDx=0;entryDy=0;entryPerimeter=0;fillColor=#60a917;strokeColor=#2D7600;dashed=1;" parent="1" source="bRxHQmMlnLKIko_M4iw--21" target="bRxHQmMlnLKIko_M4iw--22" edge="1">
          <mxGeometry relative="1" as="geometry" />
        </mxCell>
        <mxCell id="bRxHQmMlnLKIko_M4iw--26" style="edgeStyle=orthogonalEdgeStyle;rounded=0;orthogonalLoop=1;jettySize=auto;html=1;exitX=0.5;exitY=0;exitDx=0;exitDy=0;exitPerimeter=0;entryX=1;entryY=0.5;entryDx=0;entryDy=0;entryPerimeter=0;fillColor=#60a917;strokeColor=#2D7600;dashed=1;" parent="1" source="bRxHQmMlnLKIko_M4iw--13" target="bRxHQmMlnLKIko_M4iw--23" edge="1">
          <mxGeometry relative="1" as="geometry" />
        </mxCell>
        <mxCell id="bRxHQmMlnLKIko_M4iw--27" style="edgeStyle=orthogonalEdgeStyle;rounded=0;orthogonalLoop=1;jettySize=auto;html=1;exitX=0.5;exitY=0;exitDx=0;exitDy=0;exitPerimeter=0;entryX=1;entryY=0.5;entryDx=0;entryDy=0;entryPerimeter=0;fillColor=#60a917;strokeColor=#2D7600;dashed=1;" parent="1" source="bRxHQmMlnLKIko_M4iw--14" target="bRxHQmMlnLKIko_M4iw--24" edge="1">
          <mxGeometry relative="1" as="geometry" />
        </mxCell>
        <mxCell id="bRxHQmMlnLKIko_M4iw--68" value="DELETE all objects" style="edgeLabel;html=1;align=center;verticalAlign=middle;resizable=0;points=[];" parent="bRxHQmMlnLKIko_M4iw--27" vertex="1" connectable="0">
          <mxGeometry x="-0.7044" y="2" relative="1" as="geometry">
            <mxPoint x="11" as="offset" />
          </mxGeometry>
        </mxCell>
        <mxCell id="bRxHQmMlnLKIko_M4iw--28" style="edgeStyle=orthogonalEdgeStyle;rounded=0;orthogonalLoop=1;jettySize=auto;html=1;exitX=0;exitY=0.75;exitDx=0;exitDy=0;exitPerimeter=0;entryX=1;entryY=0.25;entryDx=0;entryDy=0;entryPerimeter=0;dashed=1;fillColor=#008a00;strokeColor=#005700;" parent="1" source="bRxHQmMlnLKIko_M4iw--9" target="bRxHQmMlnLKIko_M4iw--16" edge="1">
          <mxGeometry relative="1" as="geometry">
            <Array as="points">
              <mxPoint x="560" y="99" />
              <mxPoint x="560" y="180" />
            </Array>
          </mxGeometry>
        </mxCell>
        <mxCell id="bRxHQmMlnLKIko_M4iw--47" value="GET input data CSV" style="edgeLabel;html=1;align=center;verticalAlign=middle;resizable=0;points=[];" parent="bRxHQmMlnLKIko_M4iw--28" vertex="1" connectable="0">
          <mxGeometry x="0.6269" y="-2" relative="1" as="geometry">
            <mxPoint x="17" as="offset" />
          </mxGeometry>
        </mxCell>
        <mxCell id="bRxHQmMlnLKIko_M4iw--29" style="edgeStyle=orthogonalEdgeStyle;rounded=0;orthogonalLoop=1;jettySize=auto;html=1;exitX=1;exitY=0.75;exitDx=0;exitDy=0;exitPerimeter=0;entryX=0.5;entryY=0;entryDx=0;entryDy=0;entryPerimeter=0;dashed=1;fillColor=#0050ef;strokeColor=#001DBC;" parent="1" source="bRxHQmMlnLKIko_M4iw--16" target="bRxHQmMlnLKIko_M4iw--22" edge="1">
          <mxGeometry relative="1" as="geometry">
            <Array as="points">
              <mxPoint x="560" y="219" />
              <mxPoint x="560" y="238" />
            </Array>
          </mxGeometry>
        </mxCell>
        <mxCell id="bRxHQmMlnLKIko_M4iw--48" value="PUT prepared data CSV" style="edgeLabel;html=1;align=center;verticalAlign=middle;resizable=0;points=[];" parent="bRxHQmMlnLKIko_M4iw--29" vertex="1" connectable="0">
          <mxGeometry x="-0.596" y="1" relative="1" as="geometry">
            <mxPoint x="25" y="1" as="offset" />
          </mxGeometry>
        </mxCell>
        <mxCell id="bRxHQmMlnLKIko_M4iw--32" style="edgeStyle=orthogonalEdgeStyle;rounded=0;orthogonalLoop=1;jettySize=auto;html=1;exitX=0;exitY=0.75;exitDx=0;exitDy=0;exitPerimeter=0;fillColor=#60a917;strokeColor=#2D7600;dashed=1;entryX=1;entryY=0.25;entryDx=0;entryDy=0;entryPerimeter=0;" parent="1" source="bRxHQmMlnLKIko_M4iw--22" target="bRxHQmMlnLKIko_M4iw--17" edge="1">
          <mxGeometry relative="1" as="geometry">
            <mxPoint x="481" y="255" as="sourcePoint" />
            <mxPoint x="235" y="299" as="targetPoint" />
            <Array as="points">
              <mxPoint x="560" y="297" />
              <mxPoint x="560" y="341" />
            </Array>
          </mxGeometry>
        </mxCell>
        <mxCell id="bRxHQmMlnLKIko_M4iw--55" value="GET prepared data CSV" style="edgeLabel;html=1;align=center;verticalAlign=middle;resizable=0;points=[];" parent="bRxHQmMlnLKIko_M4iw--32" vertex="1" connectable="0">
          <mxGeometry x="0.5902" y="1" relative="1" as="geometry">
            <mxPoint x="30" as="offset" />
          </mxGeometry>
        </mxCell>
        <mxCell id="bRxHQmMlnLKIko_M4iw--39" style="edgeStyle=orthogonalEdgeStyle;rounded=0;orthogonalLoop=1;jettySize=auto;html=1;exitX=1;exitY=0.75;exitDx=0;exitDy=0;exitPerimeter=0;entryX=0.5;entryY=0;entryDx=0;entryDy=0;entryPerimeter=0;fillColor=#0050ef;strokeColor=#001DBC;dashed=1;" parent="1" source="bRxHQmMlnLKIko_M4iw--17" target="bRxHQmMlnLKIko_M4iw--23" edge="1">
          <mxGeometry relative="1" as="geometry" />
        </mxCell>
        <mxCell id="bRxHQmMlnLKIko_M4iw--57" value="PUT analyzed data ZIP" style="edgeLabel;html=1;align=center;verticalAlign=middle;resizable=0;points=[];" parent="bRxHQmMlnLKIko_M4iw--39" vertex="1" connectable="0">
          <mxGeometry x="-0.4805" y="2" relative="1" as="geometry">
            <mxPoint x="-7" y="1" as="offset" />
          </mxGeometry>
        </mxCell>
        <mxCell id="bRxHQmMlnLKIko_M4iw--41" style="edgeStyle=orthogonalEdgeStyle;rounded=0;orthogonalLoop=1;jettySize=auto;html=1;exitX=0;exitY=0.25;exitDx=0;exitDy=0;exitPerimeter=0;entryX=1;entryY=0.25;entryDx=0;entryDy=0;entryPerimeter=0;fillColor=#60a917;strokeColor=#2D7600;dashed=1;" parent="1" source="bRxHQmMlnLKIko_M4iw--23" target="bRxHQmMlnLKIko_M4iw--18" edge="1">
          <mxGeometry relative="1" as="geometry" />
        </mxCell>
        <mxCell id="bRxHQmMlnLKIko_M4iw--58" value="GET analyzed data ZIP" style="edgeLabel;html=1;align=center;verticalAlign=middle;resizable=0;points=[];" parent="bRxHQmMlnLKIko_M4iw--41" vertex="1" connectable="0">
          <mxGeometry x="0.5935" relative="1" as="geometry">
            <mxPoint x="37" as="offset" />
          </mxGeometry>
        </mxCell>
        <mxCell id="bRxHQmMlnLKIko_M4iw--42" style="edgeStyle=orthogonalEdgeStyle;rounded=0;orthogonalLoop=1;jettySize=auto;html=1;exitX=1;exitY=0.5;exitDx=0;exitDy=0;exitPerimeter=0;entryX=0;entryY=0.5;entryDx=0;entryDy=0;entryPerimeter=0;fillColor=#0050ef;strokeColor=#001DBC;dashed=1;" parent="1" source="bRxHQmMlnLKIko_M4iw--18" target="bRxHQmMlnLKIko_M4iw--23" edge="1">
          <mxGeometry relative="1" as="geometry" />
        </mxCell>
        <mxCell id="bRxHQmMlnLKIko_M4iw--60" value="PUT analyzed data CSV" style="edgeLabel;html=1;align=center;verticalAlign=middle;resizable=0;points=[];" parent="bRxHQmMlnLKIko_M4iw--42" vertex="1" connectable="0">
          <mxGeometry x="-0.2764" y="1" relative="1" as="geometry">
            <mxPoint x="-9" as="offset" />
          </mxGeometry>
        </mxCell>
        <mxCell id="bRxHQmMlnLKIko_M4iw--43" style="edgeStyle=orthogonalEdgeStyle;rounded=0;orthogonalLoop=1;jettySize=auto;html=1;exitX=0;exitY=0.75;exitDx=0;exitDy=0;exitPerimeter=0;entryX=1;entryY=0.25;entryDx=0;entryDy=0;entryPerimeter=0;fillColor=#60a917;strokeColor=#2D7600;dashed=1;" parent="1" source="bRxHQmMlnLKIko_M4iw--23" target="bRxHQmMlnLKIko_M4iw--19" edge="1">
          <mxGeometry relative="1" as="geometry">
            <Array as="points">
              <mxPoint x="560" y="499" />
              <mxPoint x="560" y="620" />
            </Array>
          </mxGeometry>
        </mxCell>
        <mxCell id="bRxHQmMlnLKIko_M4iw--61" value="GET analyzed data CSV" style="edgeLabel;html=1;align=center;verticalAlign=middle;resizable=0;points=[];" parent="bRxHQmMlnLKIko_M4iw--43" vertex="1" connectable="0">
          <mxGeometry x="0.6147" y="-2" relative="1" as="geometry">
            <mxPoint x="18" as="offset" />
          </mxGeometry>
        </mxCell>
        <mxCell id="bRxHQmMlnLKIko_M4iw--65" style="edgeStyle=orthogonalEdgeStyle;rounded=0;orthogonalLoop=1;jettySize=auto;html=1;exitX=0.5;exitY=1;exitDx=0;exitDy=0;exitPerimeter=0;entryX=0.5;entryY=0;entryDx=0;entryDy=0;entryPerimeter=0;" parent="1" source="bRxHQmMlnLKIko_M4iw--21" target="bRxHQmMlnLKIko_M4iw--16" edge="1">
          <mxGeometry relative="1" as="geometry" />
        </mxCell>
        <mxCell id="bRxHQmMlnLKIko_M4iw--67" style="edgeStyle=orthogonalEdgeStyle;rounded=0;orthogonalLoop=1;jettySize=auto;html=1;exitX=0.5;exitY=1;exitDx=0;exitDy=0;exitPerimeter=0;entryX=0.5;entryY=0;entryDx=0;entryDy=0;entryPerimeter=0;" parent="1" source="bRxHQmMlnLKIko_M4iw--14" target="bRxHQmMlnLKIko_M4iw--16" edge="1">
          <mxGeometry relative="1" as="geometry" />
        </mxCell>
        <mxCell id="bRxHQmMlnLKIko_M4iw--76" value="Glue S3 Access&lt;div&gt;Premissions&lt;/div&gt;" style="sketch=0;outlineConnect=0;fontColor=#232F3E;gradientColor=none;fillColor=#DD344C;strokeColor=none;dashed=0;verticalLabelPosition=bottom;verticalAlign=top;align=center;html=1;fontSize=12;fontStyle=0;aspect=fixed;pointerEvents=1;shape=mxgraph.aws4.permissions;" parent="1" vertex="1">
          <mxGeometry x="-360" y="160" width="62" height="78" as="geometry" />
        </mxCell>
        <mxCell id="bRxHQmMlnLKIko_M4iw--77" value="" style="edgeStyle=orthogonalEdgeStyle;rounded=0;orthogonalLoop=1;jettySize=auto;html=1;fillColor=#a20025;strokeColor=#6F0000;dashed=1;dashPattern=1 4;" parent="1" source="bRxHQmMlnLKIko_M4iw--78" target="bRxHQmMlnLKIko_M4iw--76" edge="1">
          <mxGeometry relative="1" as="geometry" />
        </mxCell>
        <mxCell id="bRxHQmMlnLKIko_M4iw--78" value="Glue S3 Access&lt;br&gt;Role" style="sketch=0;outlineConnect=0;fontColor=#232F3E;gradientColor=none;fillColor=#DD344C;strokeColor=none;dashed=0;verticalLabelPosition=bottom;verticalAlign=top;align=center;html=1;fontSize=12;fontStyle=0;aspect=fixed;pointerEvents=1;shape=mxgraph.aws4.role;" parent="1" vertex="1">
          <mxGeometry x="-240" y="177" width="78" height="44" as="geometry" />
        </mxCell>
        <mxCell id="bRxHQmMlnLKIko_M4iw--82" value="Unzip Lambda&lt;div&gt;Premissions&lt;/div&gt;" style="sketch=0;outlineConnect=0;fontColor=#232F3E;gradientColor=none;fillColor=#DD344C;strokeColor=none;dashed=0;verticalLabelPosition=bottom;verticalAlign=top;align=center;html=1;fontSize=12;fontStyle=0;aspect=fixed;pointerEvents=1;shape=mxgraph.aws4.permissions;" parent="1" vertex="1">
          <mxGeometry x="-360" y="440" width="62" height="78" as="geometry" />
        </mxCell>
        <mxCell id="bRxHQmMlnLKIko_M4iw--83" value="" style="edgeStyle=orthogonalEdgeStyle;rounded=0;orthogonalLoop=1;jettySize=auto;html=1;fillColor=#a20025;strokeColor=#6F0000;dashed=1;dashPattern=1 4;" parent="1" source="bRxHQmMlnLKIko_M4iw--84" target="bRxHQmMlnLKIko_M4iw--82" edge="1">
          <mxGeometry relative="1" as="geometry" />
        </mxCell>
        <mxCell id="bRxHQmMlnLKIko_M4iw--84" value="Unzip L&lt;span style=&quot;background-color: initial;&quot;&gt;ambda&lt;/span&gt;&lt;div&gt;&lt;div&gt;Role&lt;/div&gt;&lt;/div&gt;" style="sketch=0;outlineConnect=0;fontColor=#232F3E;gradientColor=none;fillColor=#DD344C;strokeColor=none;dashed=0;verticalLabelPosition=bottom;verticalAlign=top;align=center;html=1;fontSize=12;fontStyle=0;aspect=fixed;pointerEvents=1;shape=mxgraph.aws4.role;" parent="1" vertex="1">
          <mxGeometry x="-240" y="457" width="78" height="44" as="geometry" />
        </mxCell>
        <mxCell id="bRxHQmMlnLKIko_M4iw--90" value="Comprehend&lt;div&gt;Permissions&lt;/div&gt;" style="sketch=0;outlineConnect=0;fontColor=#232F3E;gradientColor=none;fillColor=#DD344C;strokeColor=none;dashed=0;verticalLabelPosition=bottom;verticalAlign=top;align=center;html=1;fontSize=12;fontStyle=0;aspect=fixed;pointerEvents=1;shape=mxgraph.aws4.permissions;" parent="1" vertex="1">
          <mxGeometry x="-360" y="321" width="62" height="78" as="geometry" />
        </mxCell>
        <mxCell id="bRxHQmMlnLKIko_M4iw--91" value="" style="edgeStyle=orthogonalEdgeStyle;rounded=0;orthogonalLoop=1;jettySize=auto;html=1;fillColor=#a20025;strokeColor=#6F0000;dashed=1;dashPattern=1 4;" parent="1" source="bRxHQmMlnLKIko_M4iw--92" target="bRxHQmMlnLKIko_M4iw--90" edge="1">
          <mxGeometry relative="1" as="geometry" />
        </mxCell>
        <mxCell id="bRxHQmMlnLKIko_M4iw--92" value="Comprehend&lt;div&gt;Role&lt;/div&gt;" style="sketch=0;outlineConnect=0;fontColor=#232F3E;gradientColor=none;fillColor=#DD344C;strokeColor=none;dashed=0;verticalLabelPosition=bottom;verticalAlign=top;align=center;html=1;fontSize=12;fontStyle=0;aspect=fixed;pointerEvents=1;shape=mxgraph.aws4.role;" parent="1" vertex="1">
          <mxGeometry x="-240" y="338" width="78" height="44" as="geometry" />
        </mxCell>
        <mxCell id="kBexBs3pe_u1wvEAEUa_-9" value="" style="edgeStyle=orthogonalEdgeStyle;rounded=0;orthogonalLoop=1;jettySize=auto;html=1;startArrow=classic;startFill=1;endArrow=none;endFill=0;fillColor=#1ba1e2;strokeColor=#006EAF;dashed=1;" parent="1" source="kBexBs3pe_u1wvEAEUa_-2" target="kBexBs3pe_u1wvEAEUa_-3" edge="1">
          <mxGeometry relative="1" as="geometry">
            <Array as="points">
              <mxPoint x="560" y="859" />
              <mxPoint x="560" y="799" />
            </Array>
          </mxGeometry>
        </mxCell>
        <mxCell id="kBexBs3pe_u1wvEAEUa_-10" value="Write results TABLE" style="edgeLabel;html=1;align=center;verticalAlign=middle;resizable=0;points=[];" parent="kBexBs3pe_u1wvEAEUa_-9" vertex="1" connectable="0">
          <mxGeometry x="0.6808" y="-2" relative="1" as="geometry">
            <mxPoint x="32" as="offset" />
          </mxGeometry>
        </mxCell>
        <mxCell id="kBexBs3pe_u1wvEAEUa_-2" value="Data Catalog&amp;nbsp;&lt;div&gt;results table&lt;/div&gt;" style="sketch=0;outlineConnect=0;fontColor=#232F3E;gradientColor=none;fillColor=#8C4FFF;strokeColor=none;dashed=0;verticalLabelPosition=bottom;verticalAlign=top;align=center;html=1;fontSize=12;fontStyle=0;aspect=fixed;pointerEvents=1;shape=mxgraph.aws4.glue_data_catalog;" parent="1" vertex="1">
          <mxGeometry x="603" y="820" width="72" height="78" as="geometry" />
        </mxCell>
        <mxCell id="kBexBs3pe_u1wvEAEUa_-3" value="Results crawler" style="sketch=0;outlineConnect=0;fontColor=#232F3E;gradientColor=none;fillColor=#8C4FFF;strokeColor=none;dashed=0;verticalLabelPosition=middle;verticalAlign=top;align=right;html=1;fontSize=12;fontStyle=0;aspect=fixed;pointerEvents=1;shape=mxgraph.aws4.glue_crawlers;labelPosition=left;" parent="1" vertex="1">
          <mxGeometry x="221" y="760" width="78" height="78" as="geometry" />
        </mxCell>
        <mxCell id="WNyp6ixVtI5KC1Pk441o-9" style="edgeStyle=orthogonalEdgeStyle;rounded=0;orthogonalLoop=1;jettySize=auto;html=1;exitX=0.5;exitY=1;exitDx=0;exitDy=0;exitPerimeter=0;fillColor=#a20025;strokeColor=#6F0000;dashed=1;dashPattern=1 2;" edge="1" parent="1" source="WNyp6ixVtI5KC1Pk441o-1" target="bRxHQmMlnLKIko_M4iw--12">
          <mxGeometry relative="1" as="geometry" />
        </mxCell>
        <mxCell id="WNyp6ixVtI5KC1Pk441o-10" value="Starts Workflow" style="edgeLabel;html=1;align=center;verticalAlign=middle;resizable=0;points=[];" vertex="1" connectable="0" parent="WNyp6ixVtI5KC1Pk441o-9">
          <mxGeometry x="-0.2412" y="1" relative="1" as="geometry">
            <mxPoint as="offset" />
          </mxGeometry>
        </mxCell>
        <mxCell id="WNyp6ixVtI5KC1Pk441o-1" value="EventBridge Rule" style="sketch=0;points=[[0,0,0],[0.25,0,0],[0.5,0,0],[0.75,0,0],[1,0,0],[0,1,0],[0.25,1,0],[0.5,1,0],[0.75,1,0],[1,1,0],[0,0.25,0],[0,0.5,0],[0,0.75,0],[1,0.25,0],[1,0.5,0],[1,0.75,0]];outlineConnect=0;fontColor=#232F3E;fillColor=#E7157B;strokeColor=#ffffff;dashed=0;verticalLabelPosition=top;verticalAlign=bottom;align=center;html=1;fontSize=12;fontStyle=0;aspect=fixed;shape=mxgraph.aws4.resourceIcon;resIcon=mxgraph.aws4.eventbridge;labelPosition=center;" vertex="1" parent="1">
          <mxGeometry x="221" y="-240" width="78" height="78" as="geometry" />
        </mxCell>
        <mxCell id="WNyp6ixVtI5KC1Pk441o-5" style="edgeStyle=orthogonalEdgeStyle;rounded=0;orthogonalLoop=1;jettySize=auto;html=1;exitX=0.5;exitY=0;exitDx=0;exitDy=0;exitPerimeter=0;dashed=1;fillColor=#60a917;strokeColor=#2D7600;entryX=1;entryY=0.5;entryDx=0;entryDy=0;entryPerimeter=0;" edge="1" parent="1" source="WNyp6ixVtI5KC1Pk441o-2" target="bRxHQmMlnLKIko_M4iw--9">
          <mxGeometry relative="1" as="geometry">
            <mxPoint x="770" y="-70" as="targetPoint" />
          </mxGeometry>
        </mxCell>
        <mxCell id="WNyp6ixVtI5KC1Pk441o-2" value="Empty S3 folder&lt;br&gt;input/" style="sketch=0;points=[[0,0,0],[0.25,0,0],[0.5,0,0],[0.75,0,0],[1,0,0],[0,1,0],[0.25,1,0],[0.5,1,0],[0.75,1,0],[1,1,0],[0,0.25,0],[0,0.5,0],[0,0.75,0],[1,0.25,0],[1,0.5,0],[1,0.75,0]];outlineConnect=0;fontColor=#232F3E;fillColor=#ED7100;strokeColor=#ffffff;dashed=0;verticalLabelPosition=bottom;verticalAlign=top;align=center;html=1;fontSize=12;fontStyle=0;aspect=fixed;shape=mxgraph.aws4.resourceIcon;resIcon=mxgraph.aws4.lambda;" vertex="1" parent="1">
          <mxGeometry x="40" width="78" height="78" as="geometry" />
        </mxCell>
        <mxCell id="WNyp6ixVtI5KC1Pk441o-3" style="edgeStyle=orthogonalEdgeStyle;rounded=0;orthogonalLoop=1;jettySize=auto;html=1;exitX=0.5;exitY=1;exitDx=0;exitDy=0;exitPerimeter=0;entryX=0.5;entryY=0;entryDx=0;entryDy=0;entryPerimeter=0;" edge="1" parent="1" source="WNyp6ixVtI5KC1Pk441o-2" target="bRxHQmMlnLKIko_M4iw--16">
          <mxGeometry relative="1" as="geometry" />
        </mxCell>
        <mxCell id="WNyp6ixVtI5KC1Pk441o-6" style="edgeStyle=orthogonalEdgeStyle;rounded=0;orthogonalLoop=1;jettySize=auto;html=1;exitX=0.5;exitY=0;exitDx=0;exitDy=0;exitPerimeter=0;entryX=1;entryY=0.5;entryDx=0;entryDy=0;entryPerimeter=0;jumpStyle=arc;fillColor=#a20025;strokeColor=#6F0000;dashed=1;dashPattern=1 2;" edge="1" parent="1" source="bRxHQmMlnLKIko_M4iw--9" target="WNyp6ixVtI5KC1Pk441o-1">
          <mxGeometry relative="1" as="geometry" />
        </mxCell>
        <mxCell id="WNyp6ixVtI5KC1Pk441o-7" value="Object Created" style="edgeLabel;html=1;align=center;verticalAlign=middle;resizable=0;points=[];" vertex="1" connectable="0" parent="WNyp6ixVtI5KC1Pk441o-6">
          <mxGeometry x="-0.45" y="-1" relative="1" as="geometry">
            <mxPoint x="-1" y="137" as="offset" />
          </mxGeometry>
        </mxCell>
      </root>
    </mxGraphModel>
  </diagram>
</mxfile>
